<svg xmlns="http://www.w3.org/2000/svg" xmlns:xlink="http://www.w3.org/1999/xlink" width="1135" zoomAndPan="magnify" viewBox="0 0 851.25 603.000004" height="804" preserveAspectRatio="xMidYMid meet" version="1.0"><defs><g/></defs><path fill="#1976d2" d="M 456.035156 223.378906 C 455.902344 223.089844 455.695312 222.878906 455.5625 222.589844 C 452.566406 216.445312 448.417969 211.375 443.585938 207.300781 C 445.1875 214.5 444.554688 222.117188 441.589844 229.472656 C 447.417969 233.703125 455.511719 230.3125 456.035156 223.378906 " fill-opacity="1" fill-rule="nonzero"/><path fill="#1976d2" d="M 392.074219 231.285156 C 400.269531 218.964844 421.074219 215.601562 434.15625 213.816406 C 434.757812 213.710938 435.285156 213.816406 435.808594 213.894531 C 435.574219 209.589844 434.3125 205.410156 432.078125 201.578125 C 423.777344 202.996094 415.820312 205.332031 408.253906 209.140625 C 404.8125 210.902344 401.53125 212.84375 398.40625 215.023438 C 395.988281 216.734375 393.703125 218.519531 391.523438 220.460938 C 387.449219 223.167969 387.636719 226.765625 392.074219 231.285156 " fill-opacity="1" fill-rule="nonzero"/><path fill="#1976d2" d="M 344.949219 200.421875 C 360.132812 189.835938 375.761719 180.351562 394.492188 178.828125 C 394.542969 175.546875 394.4375 172.183594 394.203125 168.792969 C 374.316406 172.105469 356.273438 180.0625 340.640625 192.90625 C 341.40625 195.769531 342.824219 198.398438 344.949219 200.421875 " fill-opacity="1" fill-rule="nonzero"/><path fill="#1976d2" d="M 413.402344 197.425781 C 413.402344 197.085938 413.351562 196.691406 413.457031 196.242188 C 414.085938 193.355469 414.375 190.4375 414.429688 187.472656 C 411.855469 181.613281 407.964844 176.648438 403.160156 172.867188 C 403.605469 183.1875 402.582031 193.355469 400.21875 203.390625 C 404.417969 201 408.886719 199.054688 413.402344 197.425781 " fill-opacity="1" fill-rule="nonzero"/><path fill="#1976d2" d="M 335.046875 130.179688 C 327.535156 131.285156 320.179688 133.175781 313.140625 136.039062 C 310.039062 137.273438 302.449219 139.796875 300.375 142.683594 C 297.695312 146.519531 301.164062 150.011719 304 152.535156 C 317.554688 143.316406 333.367188 139.796875 349.652344 142.554688 C 347.683594 137.457031 343.792969 133.332031 336.808594 131.207031 C 336.070312 130.941406 335.492188 130.601562 335.046875 130.179688 " fill-opacity="1" fill-rule="nonzero"/><path fill="#1976d2" d="M 314.53125 110.007812 C 312.351562 107.511719 310.066406 105.148438 307.703125 102.8125 C 296.984375 103.941406 286.898438 107.800781 277.730469 114.605469 C 276.417969 115.578125 275.15625 115.578125 274.082031 115.050781 C 273.949219 115.050781 273.898438 115.105469 273.738281 115.105469 C 257.191406 113.398438 257.875 95.296875 268.644531 86.367188 C 273.160156 82.585938 278.390625 79.328125 283.984375 76.804688 C 270.191406 50.328125 245.765625 50.667969 219.945312 57.445312 C 257.347656 132.363281 302.082031 221.277344 379.253906 260.519531 C 422.726562 282.558594 470.691406 292.199219 517.5 304.230469 C 548.3125 312.136719 589.605469 318.753906 613.667969 341.976562 C 618.761719 338.480469 623.699219 334.804688 628.296875 330.679688 C 634.234375 325.425781 642.140625 319.125 643.191406 310.796875 C 643.242188 310.351562 643.402344 310.007812 643.53125 309.613281 C 639.75 306.382812 635.574219 303.519531 631.082031 301.078125 C 629.53125 306.960938 626.851562 312.398438 622.046875 316.652344 C 613.71875 323.984375 602.609375 323.117188 593.570312 317.519531 C 592.703125 316.996094 592.257812 316.3125 591.917969 315.550781 C 590.761719 314.316406 590.234375 312.53125 591.445312 310.640625 C 595.121094 304.625 597.511719 298.320312 598.71875 291.726562 C 592.546875 291.042969 586.691406 289.652344 581.121094 287.550781 C 575.238281 294.246094 569.167969 300.734375 562.8125 306.960938 C 561.761719 307.960938 560.578125 308.273438 559.476562 308.167969 C 558.847656 308.273438 558.214844 308.273438 557.585938 308.011719 C 552.148438 305.78125 546.710938 303.519531 541.246094 301.289062 C 539.09375 300.367188 537.492188 298.425781 538.226562 295.902344 C 538.277344 295.691406 538.410156 295.5625 538.460938 295.351562 C 538.226562 290.808594 538.960938 286.472656 540.5625 282.558594 C 539.09375 282.902344 537.597656 283.136719 536.046875 283.136719 C 535.496094 283.1875 535.074219 283.03125 534.628906 282.902344 C 532.972656 282.847656 531.527344 281.875 531.1875 279.75 C 530.320312 274.546875 528.140625 269.898438 525.039062 266.0625 C 524.828125 266.167969 524.699219 266.246094 524.460938 266.300781 C 513.296875 268.742188 513.640625 281.007812 506.101562 287.3125 C 499.953125 292.433594 491.652344 288.574219 486.214844 284.160156 C 478.125 277.59375 480.988281 269.898438 486.953125 262.988281 C 486.898438 262.804688 486.742188 262.726562 486.714844 262.464844 C 486.214844 260.808594 485.691406 259.074219 485.113281 257.367188 C 485.0625 257.289062 484.957031 257.183594 484.957031 257.078125 C 484.195312 254.664062 468.511719 261.832031 466.726562 262.804688 C 460.949219 265.90625 455.957031 270.003906 451.4375 274.703125 C 451.203125 274.992188 450.914062 275.074219 450.625 275.28125 C 449.335938 276.4375 447.5 277.015625 445.554688 276.042969 C 436.492188 271.578125 425.878906 266.878906 433.050781 254.898438 C 436.257812 249.460938 440.617188 244.628906 445.476562 240.191406 C 440.828125 239.664062 436.308594 237.378906 433.339844 233.703125 C 432.289062 232.386719 432.183594 230.945312 432.527344 229.628906 C 432.550781 229 432.65625 228.371094 433 227.738281 C 433.839844 225.980469 434.417969 224.296875 434.890625 222.511719 C 428.453125 223.457031 422.125 224.824219 415.976562 226.820312 C 409.910156 228.761719 400.585938 231.285156 398.222656 238.007812 C 397.460938 240.164062 395.59375 240.976562 393.753906 240.925781 C 393.519531 240.925781 393.359375 241.03125 393.074219 241.03125 C 378.101562 240.558594 374.5 225.347656 384.195312 215.417969 C 385.742188 213.871094 387.398438 212.371094 389.105469 210.953125 C 389.105469 210.847656 389.105469 210.796875 389.105469 210.71875 C 391.628906 203.101562 393.28125 195.378906 393.992188 187.628906 C 376.445312 189.308594 361.839844 199.210938 347.578125 209.195312 C 346.421875 210.035156 345.292969 210.113281 344.265625 209.824219 C 343.453125 209.875 342.613281 209.796875 341.902344 209.300781 C 336.570312 205.28125 332.789062 199.738281 331.660156 193.09375 C 331.660156 192.960938 331.660156 192.804688 331.660156 192.671875 C 330.976562 191.199219 331.082031 189.519531 332.683594 188.152344 C 338.542969 183.164062 344.714844 178.800781 351.226562 174.992188 C 349.414062 174.230469 348.101562 172.472656 348.679688 170.109375 C 350.203125 164.171875 351.464844 157.683594 351.308594 151.5625 C 351.175781 151.5625 351.019531 151.617188 350.886719 151.5625 C 335.046875 147.992188 318.945312 151.484375 306.152344 161.570312 C 303.394531 163.804688 299.847656 162.042969 298.824219 159.574219 C 291.339844 152.535156 286.558594 142.105469 296.488281 134.726562 C 303.816406 129.261719 313.140625 125.875 322.492188 123.695312 C 319.96875 119.464844 317.449219 115.234375 314.875 111.03125 C 314.691406 110.691406 314.636719 110.347656 314.53125 110.007812 " fill-opacity="1" fill-rule="nonzero"/><path fill="#1976d2" d="M 278.152344 90.359375 C 276.601562 91.382812 260 104.964844 273.738281 106.355469 C 273.898438 106.355469 274.027344 106.460938 274.1875 106.515625 C 287.265625 97.085938 302.84375 92.722656 318.867188 93.933594 C 318.917969 93.011719 318.945312 92.09375 318.917969 91.121094 C 318.917969 89.675781 319 86.078125 318.710938 82.796875 C 308.28125 77.933594 297.617188 80.507812 287.609375 85.265625 C 284.457031 86.761719 281.066406 88.46875 278.152344 90.359375 " fill-opacity="1" fill-rule="nonzero"/><path fill="#1976d2" d="M 330.6875 116.734375 C 332.527344 115.683594 334.128906 114.367188 335.441406 112.609375 C 335.652344 111.6875 335.941406 110.824219 336.414062 110.007812 C 338.304688 102.730469 335.730469 96.21875 332.054688 89.964844 C 331.316406 88.757812 329.296875 85.105469 326.90625 81.902344 C 327.0625 83.269531 327.195312 84.632812 327.296875 85.972656 C 328.085938 93.695312 327.484375 101.128906 324.25 108.011719 C 326.511719 110.824219 328.664062 113.738281 330.6875 116.734375 " fill-opacity="1" fill-rule="nonzero"/><path fill="#1976d2" d="M 441.0625 264.566406 C 441.929688 265.667969 444.347656 266.507812 446.578125 267.269531 C 452.804688 261.464844 468.90625 249.515625 480.753906 247.78125 C 477.445312 242.132812 472.925781 237.429688 466.859375 235.199219 C 459.792969 239.585938 453.277344 244.679688 447.550781 250.722656 C 445.03125 253.453125 437.515625 260.230469 441.0625 264.566406 " fill-opacity="1" fill-rule="nonzero"/><path fill="#1976d2" d="M 619.105469 307.015625 C 621.363281 303.808594 622.675781 300.054688 623.464844 296.246094 C 623.253906 295.457031 623.464844 294.589844 623.882812 293.800781 C 624.332031 290.910156 624.566406 287.890625 624.828125 285.027344 C 624.828125 284.738281 624.960938 284.503906 625.066406 284.214844 C 620.730469 281.191406 613.796875 282.113281 608.335938 283.425781 C 608.125 293.277344 605.65625 302.785156 600.953125 311.503906 C 607.546875 314.367188 614.429688 313.449219 619.105469 307.015625 " fill-opacity="1" fill-rule="nonzero"/><path fill="#1976d2" d="M 637.28125 332.335938 C 632.472656 336.828125 627.429688 341.003906 622.152344 344.890625 C 635.679688 342.476562 649.128906 339.664062 662.417969 336.300781 C 659.320312 328.449219 654.933594 321.410156 649.417969 315.394531 C 647.289062 322.144531 642.613281 327.292969 637.28125 332.335938 " fill-opacity="1" fill-rule="nonzero"/><path fill="#1976d2" d="M 669.457031 334.464844 C 671.875 333.832031 674.292969 333.148438 676.683594 332.519531 C 674.632812 325.636719 673.1875 318.703125 672.269531 311.664062 C 672.03125 311.503906 671.875 311.320312 671.691406 311.164062 C 670.746094 311.269531 669.800781 311.164062 668.722656 310.824219 C 661 308.300781 653.488281 305.4375 646.054688 302.339844 C 656.480469 310.691406 664.546875 321.699219 669.457031 334.464844 " fill-opacity="1" fill-rule="nonzero"/><path fill="#1976d2" d="M 292.230469 73.707031 C 296.539062 72.445312 301.003906 71.710938 305.417969 71.632812 C 283.773438 47.753906 262.15625 23.878906 240.511719 0.0273438 C 220.574219 9.957031 206.785156 28.894531 204.945312 51.484375 C 204.867188 52.667969 204.523438 53.71875 204.078125 54.609375 C 207.964844 53.296875 211.878906 51.929688 215.820312 50.484375 C 246.238281 39.375 276.65625 41.898438 292.230469 73.707031 " fill-opacity="1" fill-rule="nonzero"/><path fill="#1976d2" d="M 750.019531 305.410156 C 746.132812 305.648438 742.351562 305.882812 738.804688 305.9375 C 719.890625 306.332031 697.828125 307.015625 679.597656 312.058594 C 680.515625 318.308594 681.855469 324.429688 683.667969 330.523438 C 706.257812 323.824219 728.429688 315.578125 750.019531 305.410156 " fill-opacity="1" fill-rule="nonzero"/><path fill="#1976d2" d="M 493.9375 256.265625 C 496.460938 254.085938 499.035156 252.089844 501.320312 250.382812 C 501.003906 248.699219 500.769531 246.992188 500.480469 245.257812 C 499.324219 244.289062 498.589844 242.972656 498.300781 241.503906 C 489.421875 233.992188 479.386719 228.84375 468.355469 225.898438 C 468.222656 226.082031 468.039062 226.292969 467.882812 226.476562 C 481.355469 230.550781 489.472656 242.867188 493.9375 256.265625 " fill-opacity="1" fill-rule="nonzero"/><path fill="#1976d2" d="M 494.28125 279.117188 C 497.90625 281.691406 500.191406 280.511719 502.765625 277.253906 C 506.046875 273.128906 507.363281 267.847656 511.195312 263.988281 C 513.007812 262.121094 515.03125 260.730469 517.265625 259.601562 C 514.402344 258.050781 511.195312 257 507.675781 256.554688 C 502.921875 260.285156 498.246094 264.25 494.070312 268.691406 C 490.289062 272.761719 488.738281 275.230469 494.28125 279.117188 " fill-opacity="1" fill-rule="nonzero"/><path fill="#1976d2" d="M 597.75 282.035156 C 597.5625 281.875 597.300781 281.71875 597.117188 281.535156 C 588.054688 273.390625 576.785156 269.398438 565.152344 269.898438 C 575.527344 276.253906 586.402344 281.480469 598.667969 282.980469 C 598.328125 282.691406 598.039062 282.347656 597.75 282.035156 " fill-opacity="1" fill-rule="nonzero"/><path fill="#1976d2" d="M 510.199219 248.253906 C 524.015625 250.722656 535.125 260.335938 538.699219 274.023438 C 541.957031 273.234375 544.820312 271.265625 546.578125 268.425781 C 546.183594 267.769531 545.84375 267.085938 545.632812 266.351562 C 537.148438 254.269531 523.964844 247.519531 509.515625 246.808594 C 509.542969 247.097656 509.59375 247.335938 509.648438 247.625 C 509.832031 247.808594 509.988281 248.070312 510.199219 248.253906 " fill-opacity="1" fill-rule="nonzero"/><path fill="#1976d2" d="M 572.664062 283.871094 C 567.566406 281.375 562.578125 278.515625 557.691406 275.464844 C 550.78125 279.25 547.105469 286.339844 547.210938 294.351562 C 550.941406 295.902344 554.667969 297.453125 558.398438 298.949219 C 563.3125 294.089844 568.066406 289.046875 572.664062 283.871094 " fill-opacity="1" fill-rule="nonzero"/><path fill="#1976d2" d="M 358.292969 167.296875 C 361.210938 167.246094 364.019531 166.796875 366.882812 166.089844 C 367.226562 163.933594 367.566406 161.808594 367.90625 159.679688 C 367.671875 158.890625 367.566406 158.128906 367.566406 157.34375 C 367.121094 156.476562 366.832031 155.398438 366.777344 154.242188 C 366.359375 139.21875 356.507812 126.347656 342.480469 121.488281 C 342.140625 121.984375 341.902344 122.511719 341.691406 123.035156 C 341.851562 123.300781 341.902344 123.589844 341.957031 123.824219 C 360.34375 131.207031 361.789062 149.777344 358.292969 167.296875 " fill-opacity="1" fill-rule="nonzero"/><path fill="#1976d2" d="M 47.867188 391.804688 C 192.046875 390.648438 336.230469 389.414062 480.359375 388.207031 C 481.066406 387.523438 482.015625 387.101562 483.273438 387.101562 C 590.234375 388.363281 695.699219 367.691406 794.230469 326.058594 C 792.128906 322.222656 790 318.652344 787.820312 315.550781 C 783.511719 309.324219 776.761719 306.671875 769.195312 305.648438 C 661.839844 361.441406 539.671875 366.957031 420.96875 367.929688 C 354.066406 368.425781 287.660156 371.371094 220.863281 373.601562 C 159.34375 375.703125 97.984375 379.855469 37.882812 364.671875 C 36.753906 372.5 35.886719 380.351562 35.308594 388.207031 C 39.484375 389.386719 43.664062 390.597656 47.8125 391.804688 L 47.867188 391.804688 " fill-opacity="1" fill-rule="nonzero"/><path fill="#1976d2" d="M 168.511719 267.71875 C 132.078125 265.144531 105.652344 235.121094 107.78125 198.292969 C 109.621094 166.957031 133.96875 139.636719 166.542969 141.34375 C 242.535156 145.3125 243.503906 262.332031 168.511719 267.71875 Z M 217.027344 165.878906 C 197.5625 139.925781 158.003906 129.078125 130.816406 149.644531 C 103.816406 170.054688 97.878906 210.113281 115.164062 238.902344 C 134.996094 271.921875 183.957031 281.691406 210.960938 251.5625 C 231.5 228.710938 231.527344 191.542969 217.027344 165.878906 " fill-opacity="1" fill-rule="nonzero"/><path fill="#1976d2" d="M 52.226562 400.527344 C 51.253906 407.382812 50.492188 414.316406 49.914062 421.199219 C 194.515625 436.566406 339.039062 403.679688 483.746094 416.445312 C 483.222656 409.957031 482.539062 403.441406 481.699219 396.953125 C 338.542969 398.109375 195.410156 399.316406 52.226562 400.527344 " fill-opacity="1" fill-rule="nonzero"/><path fill="#1976d2" d="M 108.886719 242.578125 C 88.710938 209.195312 97.167969 159.917969 132.027344 139.796875 C 163.074219 121.828125 202.765625 134.777344 223.332031 162.203125 C 241.324219 194.0625 238.382812 240.976562 207.625 264.304688 C 175.316406 288.863281 129.164062 276.203125 108.886719 242.578125 Z M 295.121094 325.296875 C 303.527344 323.929688 314.820312 327.421875 317.34375 336.484375 C 319.785156 345.285156 312.851562 353.429688 305.179688 356.398438 C 295.960938 358.8125 285.636719 354.191406 282.09375 345.128906 C 278.152344 335.199219 285.375 326.847656 295.121094 325.296875 Z M 395.648438 319.910156 C 404.050781 318.546875 415.347656 322.039062 417.867188 331.152344 C 420.285156 339.902344 413.351562 348.042969 405.679688 351.011719 C 396.460938 353.429688 386.136719 348.804688 382.589844 339.742188 C 378.679688 329.8125 385.902344 321.460938 395.648438 319.910156 Z M 225.566406 364.722656 C 287.609375 362.832031 349.363281 359.679688 411.566406 359.261719 C 416.898438 359.207031 422.175781 359.15625 427.507812 359.101562 C 437.175781 331.441406 471.21875 334.753906 495.621094 334.699219 C 520.023438 334.648438 544.476562 334.175781 568.828125 334.515625 C 576.15625 334.648438 582.984375 334.9375 589.605469 336.011719 C 574.421875 328.34375 556.667969 324.085938 541.324219 319.675781 C 518.183594 313.027344 494.648438 307.695312 471.375 301.707031 C 430.003906 291.097656 388.371094 278.515625 352.226562 255.136719 C 322.019531 235.539062 300.191406 207.855469 280.253906 178.304688 C 254.722656 140.425781 231.972656 100.734375 211.460938 59.890625 C 192.519531 65.722656 173.476562 73.652344 157.742188 75.992188 C 124.410156 80.984375 91.628906 77.59375 61.078125 64.300781 C 69.902344 125.898438 70.035156 188.101562 59.894531 249.726562 C 54.089844 285.210938 44.820312 320.488281 39.199219 356.003906 C 100.453125 371.710938 162.941406 366.667969 225.566406 364.722656 " fill-opacity="1" fill-rule="nonzero"/><path fill="#1976d2" d="M 523.097656 341.921875 C 499.664062 341.976562 448.050781 333.332031 435.414062 358.996094 C 491.550781 358.367188 548.3125 356.34375 603.710938 347.9375 C 580.4375 336.644531 547.972656 341.898438 523.097656 341.921875 " fill-opacity="1" fill-rule="nonzero"/><path fill="#1976d2" d="M 43.609375 399.660156 C 40.640625 398.84375 37.675781 397.953125 34.730469 397.136719 C 34.050781 411.691406 34.390625 426.347656 36.28125 441.082031 C 37.542969 441.292969 38.804688 441.371094 40.0625 441.425781 C 40.484375 427.449219 41.71875 413.527344 43.609375 399.660156 " fill-opacity="1" fill-rule="nonzero"/><path fill="#1976d2" d="M 798.144531 333.78125 C 700.480469 375.074219 596.328125 396.113281 490.289062 395.824219 C 491.3125 403.96875 492.125 412.082031 492.730469 420.226562 C 600.664062 417.363281 706.601562 395.929688 807.203125 356.871094 C 804.839844 349.199219 801.742188 341.242188 798.144531 333.78125 " fill-opacity="1" fill-rule="nonzero"/><path fill="#1976d2" d="M 810.566406 369.765625 C 810.277344 368.320312 809.882812 366.824219 809.542969 365.328125 C 708.359375 404.546875 601.714844 426.003906 493.257812 428.949219 C 493.703125 437.40625 493.9375 445.835938 493.9375 454.320312 C 509.542969 454.664062 525.171875 454.953125 540.800781 455.058594 C 582.855469 455.347656 621.125 444.523438 662.183594 436.773438 C 699.035156 429.789062 732.710938 420.042969 767.960938 407.433594 C 788.554688 400.054688 816.347656 399.765625 810.566406 369.765625 " fill-opacity="1" fill-rule="nonzero"/><path fill="#1976d2" d="M 49.230469 431.335938 C 48.996094 435.515625 48.785156 439.691406 48.707031 443.894531 C 48.707031 444.394531 48.546875 444.785156 48.417969 445.207031 C 48.496094 447.441406 47.105469 449.882812 44.242188 450.066406 C 42.007812 450.25 39.828125 450.171875 37.648438 449.960938 C 37.960938 451.800781 38.277344 453.691406 38.644531 455.582031 C 121.703125 473.679688 205.96875 462.148438 289.710938 455.503906 C 355.011719 450.355469 419.996094 452.640625 485.191406 454.136719 C 485.246094 444.96875 485.007812 435.804688 484.484375 426.6875 C 339.277344 413.738281 194.332031 446.914062 49.230469 431.335938 " fill-opacity="1" fill-rule="nonzero"/><path fill="#1976d2" d="M 401.425781 329.183594 C 404.234375 329.367188 406.808594 331.835938 406.808594 334.855469 C 406.808594 335.566406 406.652344 336.25 406.417969 336.878906 C 406.417969 336.933594 406.417969 336.984375 406.417969 337.039062 C 405.65625 340.480469 402.238281 343 398.71875 342.132812 C 396.460938 341.582031 394.832031 339.691406 394.226562 337.5625 C 393.414062 336.300781 393.019531 334.804688 393.335938 333.253906 C 394.097656 328.921875 398.035156 328 401.425781 329.183594 Z M 403.761719 343.972656 C 407.730469 342.476562 412.140625 337.71875 410.828125 333.097656 C 409.464844 328.265625 402.6875 326.609375 398.378906 326.898438 C 391.46875 327.320312 385.796875 332.652344 390.707031 339.375 C 393.648438 343.527344 398.851562 345.285156 403.761719 343.972656 " fill-opacity="1" fill-rule="nonzero"/><path fill="#1976d2" d="M 300.898438 334.570312 C 303.710938 334.753906 306.285156 337.222656 306.285156 340.242188 C 306.285156 340.953125 306.152344 341.632812 305.917969 342.265625 C 305.917969 342.316406 305.917969 342.371094 305.917969 342.421875 C 305.128906 345.8125 301.742188 348.332031 298.195312 347.519531 C 295.960938 346.964844 294.253906 345.074219 293.730469 342.949219 C 292.914062 341.632812 292.519531 340.191406 292.808594 338.640625 C 293.570312 334.304688 297.511719 333.332031 300.898438 334.570312 Z M 303.238281 349.355469 C 307.203125 347.859375 311.644531 343.105469 310.304688 338.429688 C 308.964844 333.621094 302.160156 331.996094 297.800781 332.285156 C 290.972656 332.703125 285.296875 338.0625 290.128906 344.734375 C 293.152344 348.910156 298.324219 350.671875 303.238281 349.355469 " fill-opacity="1" fill-rule="nonzero"/><path fill="#1976d2" d="M 169.640625 149.25 C 97.484375 141.976562 99.535156 255.636719 168.511719 260.441406 C 233.183594 255.765625 233.417969 155.660156 169.640625 149.25 " fill-opacity="1" fill-rule="nonzero"/><path fill="#1976d2" d="M 177.785156 62.175781 C 146.210938 64.828125 114.664062 65.066406 83.144531 62.9375 C 114.320312 71.816406 146.210938 69.871094 177.785156 62.175781 " fill-opacity="1" fill-rule="nonzero"/><g fill="#1976d2" fill-opacity="1"><g transform="translate(88.31332, 543.296113)"><g><path d="M 48.953125 -35.21875 C 48.953125 -27.820312 46.101562 -20.582031 40.40625 -13.5 C 34.707031 -6.414062 27.8125 -1.675781 19.71875 0.71875 C 17.382812 0.71875 14.988281 0.625 12.53125 0.4375 C 10.082031 0.25 7.957031 0 6.15625 -0.3125 C 5.300781 -7.820312 4.660156 -14.941406 4.234375 -21.671875 C 3.804688 -28.410156 3.59375 -34.707031 3.59375 -40.5625 C 3.59375 -42.53125 3.601562 -44.523438 3.625 -46.546875 C 3.65625 -48.578125 3.722656 -50.601562 3.828125 -52.625 C 7.398438 -54.28125 10.703125 -55.46875 13.734375 -56.1875 C 16.765625 -56.90625 19.929688 -57.265625 23.234375 -57.265625 C 31.597656 -57.265625 37.972656 -55.375 42.359375 -51.59375 C 46.753906 -47.8125 48.953125 -42.351562 48.953125 -35.21875 Z M 20.609375 -47.75 C 20.179688 -42.695312 19.847656 -37.46875 19.609375 -32.0625 C 19.367188 -26.65625 19.25 -21.050781 19.25 -15.25 C 19.25 -14.082031 19.25 -13.191406 19.25 -12.578125 C 19.25 -11.960938 19.273438 -11.414062 19.328125 -10.9375 C 23.585938 -13.175781 26.859375 -16.382812 29.140625 -20.5625 C 31.429688 -24.738281 32.578125 -29.570312 32.578125 -35.0625 C 32.578125 -38.945312 31.601562 -42.046875 29.65625 -44.359375 C 27.71875 -46.671875 25.125 -47.828125 21.875 -47.828125 C 21.507812 -47.828125 21.242188 -47.828125 21.078125 -47.828125 C 20.921875 -47.828125 20.765625 -47.800781 20.609375 -47.75 Z M 20.609375 -47.75 "/></g></g></g><g fill="#1976d2" fill-opacity="1"><g transform="translate(150.045851, 543.296113)"><g><path d="M 53.671875 4.390625 C 51.804688 5.617188 49.582031 6.644531 47 7.46875 C 44.414062 8.289062 41.335938 8.914062 37.765625 9.34375 C 37.453125 6.144531 37.015625 2.804688 36.453125 -0.671875 C 35.898438 -4.160156 35.195312 -7.71875 34.34375 -11.34375 C 30.9375 -11.289062 27.875 -11.179688 25.15625 -11.015625 C 22.4375 -10.859375 19.878906 -10.617188 17.484375 -10.296875 C 16.640625 -7.898438 15.765625 -5.609375 14.859375 -3.421875 C 13.953125 -1.242188 13.046875 0.75 12.140625 2.5625 C 9.523438 2.132812 7.0625 1.289062 4.75 0.03125 C 2.4375 -1.21875 0.613281 -2.691406 -0.71875 -4.390625 C 3.382812 -12.003906 6.953125 -19.679688 9.984375 -27.421875 C 13.015625 -35.171875 16.179688 -44.929688 19.484375 -56.703125 C 22.097656 -56.703125 24.453125 -56.582031 26.546875 -56.34375 C 28.648438 -56.101562 30.984375 -55.660156 33.546875 -55.015625 C 38.171875 -47.671875 42.1875 -38.941406 45.59375 -28.828125 C 49 -18.710938 51.691406 -7.640625 53.671875 4.390625 Z M 26.109375 -38.40625 C 25.421875 -35.800781 24.648438 -33.035156 23.796875 -30.109375 C 22.941406 -27.179688 22.035156 -24.195312 21.078125 -21.15625 C 22.890625 -21.425781 24.660156 -21.640625 26.390625 -21.796875 C 28.117188 -21.960938 29.863281 -22.070312 31.625 -22.125 C 30.71875 -25.101562 29.8125 -27.945312 28.90625 -30.65625 C 28 -33.375 27.066406 -35.957031 26.109375 -38.40625 Z M 26.109375 -38.40625 "/></g></g></g><g fill="#1976d2" fill-opacity="1"><g transform="translate(214.972773, 543.296113)"><g><path d="M 49.515625 -56.703125 C 49.941406 -47.972656 50.300781 -37.75 50.59375 -26.03125 C 50.882812 -14.320312 51.03125 -4.046875 51.03125 4.796875 C 48.101562 4.796875 45.066406 4.660156 41.921875 4.390625 C 38.785156 4.128906 36.523438 3.785156 35.140625 3.359375 C 35.140625 -0.109375 35.113281 -4.15625 35.0625 -8.78125 C 35.007812 -13.414062 34.957031 -18.101562 34.90625 -22.84375 C 32.289062 -22.789062 29.835938 -22.695312 27.546875 -22.5625 C 25.265625 -22.425781 23.109375 -22.226562 21.078125 -21.96875 C 21.023438 -19.300781 20.984375 -16.488281 20.953125 -13.53125 C 20.929688 -10.582031 20.921875 -6.710938 20.921875 -1.921875 C 19.535156 -1.492188 17.414062 -1.117188 14.5625 -0.796875 C 11.71875 -0.472656 9.15625 -0.3125 6.875 -0.3125 C 5.75 -13.894531 4.957031 -24.835938 4.5 -33.140625 C 4.050781 -41.441406 3.828125 -48.492188 3.828125 -54.296875 C 5.109375 -55.148438 6.707031 -55.816406 8.625 -56.296875 C 10.539062 -56.773438 12.507812 -57.015625 14.53125 -57.015625 C 16.019531 -57.015625 17.375 -56.9375 18.59375 -56.78125 C 19.820312 -56.625 21.050781 -56.382812 22.28125 -56.0625 C 22.070312 -53.664062 21.882812 -50.578125 21.71875 -46.796875 C 21.5625 -43.015625 21.429688 -38.78125 21.328125 -34.09375 C 23.671875 -34.46875 25.929688 -34.773438 28.109375 -35.015625 C 30.296875 -35.253906 32.476562 -35.398438 34.65625 -35.453125 C 34.550781 -40.085938 34.390625 -44.382812 34.171875 -48.34375 C 33.960938 -52.3125 33.753906 -55.628906 33.546875 -58.296875 C 34.816406 -58.617188 36 -58.859375 37.09375 -59.015625 C 38.1875 -59.171875 39.316406 -59.25 40.484375 -59.25 C 42.191406 -59.25 43.84375 -59.019531 45.4375 -58.5625 C 47.03125 -58.113281 48.390625 -57.492188 49.515625 -56.703125 Z M 49.515625 -56.703125 "/></g></g></g><g fill="#1976d2" fill-opacity="1"><g transform="translate(281.017743, 543.296113)"><g><path d="M 41.125 -6.46875 C 41.550781 -5.082031 41.960938 -3.125 42.359375 -0.59375 C 42.765625 1.925781 42.96875 4.066406 42.96875 5.828125 C 37.695312 5.828125 32.648438 6.015625 27.828125 6.390625 C 23.015625 6.765625 17.015625 7.457031 9.828125 8.46875 C 8.546875 0.53125 7.410156 -9.515625 6.421875 -21.671875 C 5.441406 -33.835938 4.953125 -43.96875 4.953125 -52.0625 C 7.398438 -52.707031 9.804688 -53.1875 12.171875 -53.5 C 14.546875 -53.820312 16.90625 -53.984375 19.25 -53.984375 C 19.9375 -53.984375 20.613281 -53.96875 21.28125 -53.9375 C 21.945312 -53.914062 22.65625 -53.851562 23.40625 -53.75 C 22.976562 -51.082031 22.628906 -47.523438 22.359375 -43.078125 C 22.097656 -38.640625 21.96875 -33.914062 21.96875 -28.90625 C 21.96875 -21.664062 22.054688 -16.285156 22.234375 -12.765625 C 22.421875 -9.253906 22.726562 -6.25 23.15625 -3.75 C 26.132812 -4.601562 29.207031 -5.269531 32.375 -5.75 C 35.550781 -6.226562 38.46875 -6.46875 41.125 -6.46875 Z M 41.125 -6.46875 "/></g></g></g><g fill="#1976d2" fill-opacity="1"><g transform="translate(334.764299, 543.296113)"><g><path d="M 21.796875 -42 C 21.796875 -34.757812 21.632812 -27.1875 21.3125 -19.28125 C 21 -11.375 20.578125 -4.628906 20.046875 0.953125 C 18.554688 1.378906 16.519531 1.753906 13.9375 2.078125 C 11.351562 2.398438 8.96875 2.5625 6.78125 2.5625 C 6.78125 -8.570312 6.539062 -18.691406 6.0625 -27.796875 C 5.582031 -36.898438 4.863281 -45.070312 3.90625 -52.3125 C 5.1875 -53.15625 6.691406 -53.816406 8.421875 -54.296875 C 10.148438 -54.773438 11.972656 -55.015625 13.890625 -55.015625 C 15.328125 -55.015625 16.617188 -54.945312 17.765625 -54.8125 C 18.910156 -54.6875 20.175781 -54.4375 21.5625 -54.0625 C 21.613281 -52.414062 21.664062 -50.566406 21.71875 -48.515625 C 21.769531 -46.460938 21.796875 -44.289062 21.796875 -42 Z M 21.796875 -42 "/></g></g></g><g fill="#1976d2" fill-opacity="1"><g transform="translate(372.459028, 543.296113)"><g><path d="M 53.671875 4.390625 C 51.804688 5.617188 49.582031 6.644531 47 7.46875 C 44.414062 8.289062 41.335938 8.914062 37.765625 9.34375 C 37.453125 6.144531 37.015625 2.804688 36.453125 -0.671875 C 35.898438 -4.160156 35.195312 -7.71875 34.34375 -11.34375 C 30.9375 -11.289062 27.875 -11.179688 25.15625 -11.015625 C 22.4375 -10.859375 19.878906 -10.617188 17.484375 -10.296875 C 16.640625 -7.898438 15.765625 -5.609375 14.859375 -3.421875 C 13.953125 -1.242188 13.046875 0.75 12.140625 2.5625 C 9.523438 2.132812 7.0625 1.289062 4.75 0.03125 C 2.4375 -1.21875 0.613281 -2.691406 -0.71875 -4.390625 C 3.382812 -12.003906 6.953125 -19.679688 9.984375 -27.421875 C 13.015625 -35.171875 16.179688 -44.929688 19.484375 -56.703125 C 22.097656 -56.703125 24.453125 -56.582031 26.546875 -56.34375 C 28.648438 -56.101562 30.984375 -55.660156 33.546875 -55.015625 C 38.171875 -47.671875 42.1875 -38.941406 45.59375 -28.828125 C 49 -18.710938 51.691406 -7.640625 53.671875 4.390625 Z M 26.109375 -38.40625 C 25.421875 -35.800781 24.648438 -33.035156 23.796875 -30.109375 C 22.941406 -27.179688 22.035156 -24.195312 21.078125 -21.15625 C 22.890625 -21.425781 24.660156 -21.640625 26.390625 -21.796875 C 28.117188 -21.960938 29.863281 -22.070312 31.625 -22.125 C 30.71875 -25.101562 29.8125 -27.945312 28.90625 -30.65625 C 28 -33.375 27.066406 -35.957031 26.109375 -38.40625 Z M 26.109375 -38.40625 "/></g></g></g><g fill="#1976d2" fill-opacity="1"><g transform="translate(437.385956, 543.296113)"><g/></g></g><g fill="#1976d2" fill-opacity="1"><g transform="translate(466.136396, 543.296113)"><g><path d="M 34.90625 -18.765625 C 37.082031 -18.984375 39.378906 -18.863281 41.796875 -18.40625 C 44.222656 -17.957031 45.96875 -17.332031 47.03125 -16.53125 C 46.601562 -10.40625 44.378906 -5.648438 40.359375 -2.265625 C 36.347656 1.109375 30.851562 2.796875 23.875 2.796875 C 17.269531 2.796875 12.101562 0.75 8.375 -3.34375 C 4.65625 -7.445312 2.796875 -13.28125 2.796875 -20.84375 C 2.796875 -30.53125 5.457031 -38.703125 10.78125 -45.359375 C 16.101562 -52.015625 22.8125 -55.34375 30.90625 -55.34375 C 35.851562 -55.34375 39.84375 -53.8125 42.875 -50.75 C 45.914062 -47.6875 47.675781 -43.414062 48.15625 -37.9375 C 45.332031 -36.707031 42.910156 -35.90625 40.890625 -35.53125 C 38.867188 -35.164062 36.3125 -34.984375 33.21875 -34.984375 C 33.21875 -38.441406 32.78125 -41.101562 31.90625 -42.96875 C 31.03125 -44.832031 29.789062 -45.765625 28.1875 -45.765625 C 25.957031 -45.765625 24.09375 -43.710938 22.59375 -39.609375 C 21.101562 -35.515625 20.359375 -30.5625 20.359375 -24.75 C 20.359375 -19.113281 21.035156 -14.789062 22.390625 -11.78125 C 23.753906 -8.769531 25.6875 -7.265625 28.1875 -7.265625 C 30.75 -7.265625 32.613281 -8.273438 33.78125 -10.296875 C 34.945312 -12.328125 35.320312 -15.148438 34.90625 -18.765625 Z M 34.90625 -18.765625 "/></g></g></g><g fill="#1976d2" fill-opacity="1"><g transform="translate(526.671041, 543.296113)"><g><path d="M 41.125 -6.46875 C 41.550781 -5.082031 41.960938 -3.125 42.359375 -0.59375 C 42.765625 1.925781 42.96875 4.066406 42.96875 5.828125 C 37.695312 5.828125 32.648438 6.015625 27.828125 6.390625 C 23.015625 6.765625 17.015625 7.457031 9.828125 8.46875 C 8.546875 0.53125 7.410156 -9.515625 6.421875 -21.671875 C 5.441406 -33.835938 4.953125 -43.96875 4.953125 -52.0625 C 7.398438 -52.707031 9.804688 -53.1875 12.171875 -53.5 C 14.546875 -53.820312 16.90625 -53.984375 19.25 -53.984375 C 19.9375 -53.984375 20.613281 -53.96875 21.28125 -53.9375 C 21.945312 -53.914062 22.65625 -53.851562 23.40625 -53.75 C 22.976562 -51.082031 22.628906 -47.523438 22.359375 -43.078125 C 22.097656 -38.640625 21.96875 -33.914062 21.96875 -28.90625 C 21.96875 -21.664062 22.054688 -16.285156 22.234375 -12.765625 C 22.421875 -9.253906 22.726562 -6.25 23.15625 -3.75 C 26.132812 -4.601562 29.207031 -5.269531 32.375 -5.75 C 35.550781 -6.226562 38.46875 -6.46875 41.125 -6.46875 Z M 41.125 -6.46875 "/></g></g></g><g fill="#1976d2" fill-opacity="1"><g transform="translate(580.417574, 543.296113)"><g><path d="M 46.234375 0.796875 C 44.691406 1.273438 39.753906 1.832031 31.421875 2.46875 C 23.085938 3.113281 16.128906 3.4375 10.546875 3.4375 C 9.210938 -5.03125 8 -14.90625 6.90625 -26.1875 C 5.8125 -37.476562 5.210938 -46.878906 5.109375 -54.390625 C 13.304688 -55.929688 20.425781 -57.035156 26.46875 -57.703125 C 32.507812 -58.367188 38.429688 -58.703125 44.234375 -58.703125 C 44.234375 -56.722656 44.113281 -54.628906 43.875 -52.421875 C 43.632812 -50.210938 43.25 -47.910156 42.71875 -45.515625 C 39.738281 -45.515625 36.648438 -45.460938 33.453125 -45.359375 C 30.265625 -45.253906 26.941406 -45.09375 23.484375 -44.875 C 23.367188 -43.707031 23.285156 -42.363281 23.234375 -40.84375 C 23.179688 -39.332031 23.128906 -37.054688 23.078125 -34.015625 C 25.796875 -34.816406 28.507812 -35.40625 31.21875 -35.78125 C 33.9375 -36.15625 36.707031 -36.34375 39.53125 -36.34375 C 39.957031 -34.476562 40.273438 -32.554688 40.484375 -30.578125 C 40.703125 -28.609375 40.8125 -26.296875 40.8125 -23.640625 C 37.769531 -23.640625 34.757812 -23.546875 31.78125 -23.359375 C 28.800781 -23.171875 25.898438 -22.914062 23.078125 -22.59375 C 23.128906 -20.195312 23.207031 -17.851562 23.3125 -15.5625 C 23.425781 -13.28125 23.585938 -11.101562 23.796875 -9.03125 C 25.335938 -9.03125 28.582031 -9.332031 33.53125 -9.9375 C 38.488281 -10.550781 42.21875 -11.097656 44.71875 -11.578125 C 45.144531 -10.460938 45.503906 -8.640625 45.796875 -6.109375 C 46.085938 -3.578125 46.234375 -1.273438 46.234375 0.796875 Z M 46.234375 0.796875 "/></g></g></g><g fill="#1976d2" fill-opacity="1"><g transform="translate(640.233463, 543.296113)"><g><path d="M 53.671875 4.390625 C 51.804688 5.617188 49.582031 6.644531 47 7.46875 C 44.414062 8.289062 41.335938 8.914062 37.765625 9.34375 C 37.453125 6.144531 37.015625 2.804688 36.453125 -0.671875 C 35.898438 -4.160156 35.195312 -7.71875 34.34375 -11.34375 C 30.9375 -11.289062 27.875 -11.179688 25.15625 -11.015625 C 22.4375 -10.859375 19.878906 -10.617188 17.484375 -10.296875 C 16.640625 -7.898438 15.765625 -5.609375 14.859375 -3.421875 C 13.953125 -1.242188 13.046875 0.75 12.140625 2.5625 C 9.523438 2.132812 7.0625 1.289062 4.75 0.03125 C 2.4375 -1.21875 0.613281 -2.691406 -0.71875 -4.390625 C 3.382812 -12.003906 6.953125 -19.679688 9.984375 -27.421875 C 13.015625 -35.171875 16.179688 -44.929688 19.484375 -56.703125 C 22.097656 -56.703125 24.453125 -56.582031 26.546875 -56.34375 C 28.648438 -56.101562 30.984375 -55.660156 33.546875 -55.015625 C 38.171875 -47.671875 42.1875 -38.941406 45.59375 -28.828125 C 49 -18.710938 51.691406 -7.640625 53.671875 4.390625 Z M 26.109375 -38.40625 C 25.421875 -35.800781 24.648438 -33.035156 23.796875 -30.109375 C 22.941406 -27.179688 22.035156 -24.195312 21.078125 -21.15625 C 22.890625 -21.425781 24.660156 -21.640625 26.390625 -21.796875 C 28.117188 -21.960938 29.863281 -22.070312 31.625 -22.125 C 30.71875 -25.101562 29.8125 -27.945312 28.90625 -30.65625 C 28 -33.375 27.066406 -35.957031 26.109375 -38.40625 Z M 26.109375 -38.40625 "/></g></g></g><g fill="#1976d2" fill-opacity="1"><g transform="translate(705.160369, 543.296113)"><g><path d="M 20.921875 -13.5 L 20.921875 2 C 19.535156 2.425781 17.535156 2.796875 14.921875 3.109375 C 12.316406 3.429688 9.953125 3.59375 7.828125 3.59375 C 6.816406 -8.007812 6.054688 -18.5625 5.546875 -28.0625 C 5.046875 -37.570312 4.796875 -45.628906 4.796875 -52.234375 C 5.160156 -52.492188 5.445312 -52.675781 5.65625 -52.78125 C 5.875 -52.894531 6.09375 -53.003906 6.3125 -53.109375 C 8.382812 -54.171875 10.773438 -55.035156 13.484375 -55.703125 C 16.203125 -56.367188 19.03125 -56.753906 21.96875 -56.859375 C 25.15625 -52.222656 27.957031 -47.679688 30.375 -43.234375 C 32.800781 -38.796875 35.054688 -34.046875 37.140625 -28.984375 C 37.140625 -35.378906 37.003906 -41.0625 36.734375 -46.03125 C 36.472656 -51.007812 36.101562 -55.070312 35.625 -58.21875 C 38.382812 -59.070312 41.125 -59.722656 43.84375 -60.171875 C 46.5625 -60.628906 49.25 -60.859375 51.90625 -60.859375 C 52.0625 -57.816406 52.164062 -54.882812 52.21875 -52.0625 C 52.28125 -49.238281 52.3125 -46.5 52.3125 -43.84375 C 52.3125 -37.289062 52.160156 -30.429688 51.859375 -23.265625 C 51.566406 -16.109375 51.179688 -9.234375 50.703125 -2.640625 C 47.410156 -2.109375 44.6875 -1.722656 42.53125 -1.484375 C 40.375 -1.242188 38.28125 -1.066406 36.25 -0.953125 C 32.84375 -9.210938 30.035156 -15.585938 27.828125 -20.078125 C 25.617188 -24.578125 23.34375 -28.691406 21 -32.421875 C 20.945312 -30.242188 20.921875 -27.835938 20.921875 -25.203125 C 20.921875 -22.566406 20.921875 -18.664062 20.921875 -13.5 Z M 20.921875 -13.5 "/></g></g></g></svg>